<?xml version="1.0" standalone="no"?>
<!DOCTYPE svg PUBLIC "-//W3C//DTD SVG 20010904//EN"
 "http://www.w3.org/TR/2001/REC-SVG-20010904/DTD/svg10.dtd">
<svg version="1.0" xmlns="http://www.w3.org/2000/svg"
 width="512.000000pt" height="512.000000pt" viewBox="0 0 512.000000 512.000000"
 preserveAspectRatio="xMidYMid meet">

<g transform="translate(0.000000,512.000000) scale(0.100000,-0.100000)"
fill="#000000" stroke="none">
<path d="M0 2560 l0 -2560 2560 0 2560 0 0 2560 0 2560 -2560 0 -2560 0 0
-2560z m3411 2051 c16 -16 29 -39 29 -51 0 -12 -13 -35 -29 -51 -29 -28 -32
-29 -131 -29 -99 0 -102 1 -131 29 -16 16 -29 39 -29 51 0 12 13 35 29 51 29
28 32 29 131 29 99 0 102 -1 131 -29z m0 -320 c16 -16 29 -39 29 -51 0 -12
-13 -35 -29 -51 -29 -28 -32 -29 -131 -29 -99 0 -102 1 -131 29 -16 16 -29 39
-29 51 0 12 13 35 29 51 29 28 32 29 131 29 99 0 102 -1 131 -29z m-4 -389
c-42 -46 -47 -83 -47 -317 l0 -225 -292 2 -292 3 -83 220 c-46 121 -85 228
-89 238 -5 16 12 17 271 17 l276 0 24 25 c14 13 25 31 25 40 0 13 18 15 112
15 106 0 110 -1 95 -18z m1528 -87 l25 -24 0 -500 c0 -345 -3 -508 -11 -524
-6 -14 -22 -30 -36 -36 -34 -16 -1312 -16 -1346 0 -14 6 -30 22 -36 36 -8 16
-11 179 -11 524 l0 500 25 24 24 25 671 0 671 0 24 -25z m-3280 -160 c50 -49
15 -135 -55 -135 -41 0 -80 39 -80 80 0 41 39 80 80 80 19 0 40 -9 55 -25z
m320 0 c50 -49 15 -135 -55 -135 -41 0 -80 39 -80 80 0 41 39 80 80 80 19 0
40 -9 55 -25z m320 0 c50 -49 15 -135 -55 -135 -41 0 -80 39 -80 80 0 41 39
80 80 80 19 0 40 -9 55 -25z m1067 -687 c3 -216 5 -236 25 -273 25 -47 64 -85
113 -111 33 -18 70 -19 548 -22 l512 -3 0 -935 0 -935 -25 -24 -24 -25 -671 0
-671 0 -24 -25 c-14 -13 -25 -31 -25 -40 0 -12 -15 -15 -80 -15 -65 0 -80 3
-80 15 0 9 -11 27 -25 40 -23 24 -31 25 -135 25 -104 0 -112 -1 -135 -25 -14
-13 -25 -31 -25 -40 0 -12 -15 -15 -80 -15 -65 0 -80 3 -80 15 0 9 -11 27 -25
40 l-24 25 -911 0 -911 0 -24 25 -25 24 0 1256 0 1255 1399 0 1400 0 3 -232z"/>
<path d="M4182 3591 c-48 -12 -108 -56 -136 -99 -74 -112 -42 -262 71 -332 40
-24 41 -27 45 -88 5 -73 28 -105 78 -105 51 0 73 31 78 109 3 49 9 67 21 72
58 21 115 92 130 164 37 165 -123 320 -287 279z"/>
</g>
</svg>
