<svg version="1.1" id="Layer_1" xmlns="http://www.w3.org/2000/svg" xmlns:xlink="http://www.w3.org/1999/xlink" x="0px" y="0px"
	 width="100%" viewBox="0 0 512 512" enable-background="new 0 0 512 512" xml:space="preserve">
<path fill="#000000" opacity="1.000000" stroke="none" 
	d="
M253.000000,513.000000 
	C169.040833,513.000000 85.081673,513.000000 1.061253,513.000000 
	C1.061253,342.457153 1.061253,171.914276 1.061253,1.000000 
	C46.020214,1.000000 91.041451,1.000000 136.631592,1.351897 
	C136.697067,2.347874 136.312958,3.162538 135.672409,3.610550 
	C125.409645,10.788495 115.111023,17.915150 104.826767,25.062393 
	C81.665901,41.158497 58.569477,57.348648 35.298500,73.283913 
	C30.602264,76.499748 28.802019,80.012413 28.834812,85.909973 
	C29.121962,137.549530 28.966478,189.191406 29.046776,240.832413 
	C29.056282,246.946823 29.311264,253.110794 30.111334,259.164703 
	C32.607613,278.053406 37.731201,296.218964 45.288094,313.758423 
	C60.934074,350.072571 83.581627,381.623779 110.723045,410.042725 
	C119.979492,419.734863 129.872925,428.918579 140.188141,437.475250 
	C154.261612,449.149506 168.349182,461.030609 183.641998,470.956879 
	C204.809280,484.696136 227.113739,496.681793 248.893127,509.483154 
	C250.422684,510.382233 251.638351,511.815277 253.000000,513.000000 
z"/>
<path fill="#000000" opacity="1.000000" stroke="none" 
	d="
M377.000000,1.000003 
	C422.311310,1.000000 467.622589,1.000000 512.966919,1.000000 
	C512.966919,171.561646 512.966919,342.123291 512.966919,513.000000 
	C429.312714,513.000000 345.625000,513.000000 261.492432,512.650513 
	C262.678802,511.226715 264.252197,510.049713 265.950195,509.094147 
	C283.006836,499.495544 300.600128,490.738373 317.047791,480.193115 
	C351.210480,458.290039 383.132111,433.437195 409.846436,402.590027 
	C420.778503,389.966644 431.414032,377.002502 441.161285,363.457123 
	C454.876556,344.397522 465.710785,323.603027 473.676208,301.482178 
	C479.523224,285.244385 484.022156,268.613159 484.339935,250.822906 
	C484.772675,249.379166 484.994537,248.231522 484.994812,247.083801 
	C485.008179,192.241623 485.010315,137.399445 484.958130,82.557304 
	C484.956635,80.985283 484.354645,79.413834 483.873108,77.548843 
	C483.127319,76.666344 482.615234,75.970642 481.944153,75.503220 
	C451.237488,54.116501 420.488831,32.789982 389.829041,11.336406 
	C385.339813,8.195159 381.265991,4.460238 377.000000,1.000003 
z"/>
<path fill="#01358F" opacity="1.000000" stroke="none" 
	d="
M253.399994,513.000000 
	C251.638351,511.815277 250.422684,510.382233 248.893127,509.483154 
	C227.113739,496.681793 204.809280,484.696136 183.641998,470.956879 
	C168.349182,461.030609 154.261612,449.149506 140.188141,437.475250 
	C129.872925,428.918579 119.979492,419.734863 110.723045,410.042725 
	C83.581627,381.623779 60.934074,350.072571 45.288094,313.758423 
	C37.731201,296.218964 32.607613,278.053406 30.111334,259.164703 
	C29.311264,253.110794 29.056282,246.946823 29.046776,240.832413 
	C28.966478,189.191406 29.121962,137.549530 28.834812,85.909973 
	C28.802019,80.012413 30.602264,76.499748 35.298500,73.283913 
	C58.569477,57.348648 81.665901,41.158497 104.826767,25.062393 
	C115.111023,17.915150 125.409645,10.788495 135.672409,3.610550 
	C136.312958,3.162538 136.697067,2.347874 137.100250,1.351897 
	C176.687561,1.000000 216.375122,1.000000 256.530396,1.468657 
	C256.984253,16.559992 256.970398,31.182673 256.946167,45.906158 
	C256.935791,46.006969 257.033569,46.184525 256.569489,46.102654 
	C223.460861,46.013409 190.816147,45.961674 158.172165,46.093842 
	C155.882950,46.103111 153.256531,46.977009 151.364899,48.284813 
	C127.001793,65.128525 102.781387,82.178696 78.408737,99.008430 
	C75.564735,100.972252 74.750374,103.069710 74.757683,106.359261 
	C74.857292,151.162216 74.754166,195.965714 74.902252,240.768402 
	C74.924690,247.557953 75.403992,254.447235 76.630516,261.114044 
	C81.970177,290.137817 95.256256,315.712830 111.944969,339.639130 
	C140.965073,381.244751 178.425095,413.917328 220.856583,441.117188 
	C232.566284,448.623474 244.944626,455.086639 257.209473,462.175781 
	C257.402740,462.323090 257.879456,462.417908 257.708954,462.769409 
	C257.358002,464.925049 257.026031,466.728729 257.020996,468.533356 
	C256.979645,483.355469 256.999054,498.177765 257.000000,513.000000 
	C255.933334,513.000000 254.866653,513.000000 253.399994,513.000000 
z"/>
<path fill="#022554" opacity="1.000000" stroke="none" 
	d="
M257.399994,513.000000 
	C256.999054,498.177765 256.979645,483.355469 257.020996,468.533356 
	C257.026031,466.728729 257.358002,464.925049 258.019958,462.556091 
	C283.323547,448.430847 307.139893,433.324280 329.311646,415.715668 
	C363.619781,388.468536 393.563721,357.290649 415.340942,318.937988 
	C429.245483,294.450226 439.476166,268.752258 439.458710,239.955444 
	C439.431641,195.314667 439.411285,150.673752 439.534180,106.033287 
	C439.543671,102.582184 438.316803,100.697052 435.570984,98.797691 
	C412.062561,82.536079 388.609070,66.193016 365.292297,49.658344 
	C361.557648,47.009987 357.924469,45.903923 353.384674,45.916939 
	C321.242340,46.009079 289.099365,45.870419 256.956543,45.805351 
	C256.970398,31.182673 256.984253,16.559992 256.999023,1.468657 
	C296.687561,1.000000 336.375122,1.000000 376.531342,1.000003 
	C381.265991,4.460238 385.339813,8.195159 389.829041,11.336406 
	C420.488831,32.789982 451.237488,54.116501 481.944153,75.503220 
	C482.615234,75.970642 483.127319,76.666344 483.863739,78.032150 
	C484.017822,136.245483 484.021759,193.682220 484.025696,251.118973 
	C484.022156,268.613159 479.523224,285.244385 473.676208,301.482178 
	C465.710785,323.603027 454.876556,344.397522 441.161285,363.457123 
	C431.414032,377.002502 420.778503,389.966644 409.846436,402.590027 
	C383.132111,433.437195 351.210480,458.290039 317.047791,480.193115 
	C300.600128,490.738373 283.006836,499.495544 265.950195,509.094147 
	C264.252197,510.049713 262.678802,511.226715 261.023804,512.650513 
	C259.933319,513.000000 258.866669,513.000000 257.399994,513.000000 
z"/>
<path fill="#002A6A" opacity="1.000000" stroke="none" 
	d="
M484.339935,250.822906 
	C484.021759,193.682220 484.017822,136.245483 484.023254,78.325424 
	C484.354645,79.413834 484.956635,80.985283 484.958130,82.557304 
	C485.010315,137.399445 485.008179,192.241623 484.994812,247.083801 
	C484.994537,248.231522 484.772675,249.379166 484.339935,250.822906 
z"/>
<path fill="#C5E0EC" opacity="1.000000" stroke="none" 
	d="
M256.946167,45.906158 
	C289.099365,45.870419 321.242340,46.009079 353.384674,45.916939 
	C357.924469,45.903923 361.557648,47.009987 365.292297,49.658344 
	C388.609070,66.193016 412.062561,82.536079 435.570984,98.797691 
	C438.316803,100.697052 439.543671,102.582184 439.534180,106.033287 
	C439.411285,150.673752 439.431641,195.314667 439.458710,239.955444 
	C439.476166,268.752258 429.245483,294.450226 415.340942,318.937988 
	C393.563721,357.290649 363.619781,388.468536 329.311646,415.715668 
	C307.139893,433.324280 283.323547,448.430847 258.190430,462.204590 
	C257.879456,462.417908 257.402740,462.323090 257.205933,461.705200 
	C257.004059,450.073547 256.999054,439.059723 257.292419,427.872803 
	C281.596466,413.575653 304.506897,397.904572 325.486389,379.519745 
	C352.369049,355.961761 375.715363,329.479614 392.504608,297.675934 
	C401.084778,281.422638 408.535370,264.464478 408.808441,245.879913 
	C409.420288,204.235565 409.041565,162.575943 408.878845,120.923279 
	C408.871521,119.048737 407.502075,116.511055 405.961273,115.413307 
	C388.612457,103.053078 371.164795,90.827957 353.572174,78.817795 
	C351.168884,77.177124 347.837280,76.141693 344.924927,76.117905 
	C315.604797,75.878387 286.282471,75.908661 256.973083,75.403137 
	C257.001434,65.356987 257.017487,55.770756 257.033569,46.184525 
	C257.033569,46.184525 256.935791,46.006969 256.946167,45.906158 
z"/>
<path fill="#EDF4FA" opacity="1.000000" stroke="none" 
	d="
M256.994049,428.045929 
	C256.999054,439.059723 257.004059,450.073547 257.012634,461.557892 
	C244.944626,455.086639 232.566284,448.623474 220.856583,441.117188 
	C178.425095,413.917328 140.965073,381.244751 111.944969,339.639130 
	C95.256256,315.712830 81.970177,290.137817 76.630516,261.114044 
	C75.403992,254.447235 74.924690,247.557953 74.902252,240.768402 
	C74.754166,195.965714 74.857292,151.162216 74.757683,106.359261 
	C74.750374,103.069710 75.564735,100.972252 78.408737,99.008430 
	C102.781387,82.178696 127.001793,65.128525 151.364899,48.284813 
	C153.256531,46.977009 155.882950,46.103111 158.172165,46.093842 
	C190.816147,45.961674 223.460861,46.013409 256.569489,46.102654 
	C257.017487,55.770756 257.001434,65.356987 256.975342,75.474777 
	C256.965332,76.006332 257.037903,76.129951 256.570129,76.077026 
	C226.619766,76.016586 197.136948,75.960304 167.655029,76.096550 
	C165.361481,76.107147 162.733643,76.971230 160.837036,78.275818 
	C143.280807,90.351891 125.894691,102.675270 108.338409,114.751244 
	C105.677505,116.581535 104.751701,118.489929 104.760368,121.671661 
	C104.869217,161.647888 104.816185,201.624542 104.864914,241.601013 
	C104.869362,245.252350 105.017380,248.944168 105.560448,252.547607 
	C109.030800,275.574738 119.054184,295.959259 131.535202,315.227631 
	C154.781311,351.115356 185.262451,379.958221 220.039764,404.368744 
	C231.969620,412.742462 244.716049,419.952881 257.049072,427.778076 
	C257.008759,427.861389 256.994049,428.045929 256.994049,428.045929 
z"/>
<path fill="#0374F8" opacity="1.000000" stroke="none" 
	d="
M256.963043,75.934692 
	C286.282471,75.908661 315.604797,75.878387 344.924927,76.117905 
	C347.837280,76.141693 351.168884,77.177124 353.572174,78.817795 
	C371.164795,90.827957 388.612457,103.053078 405.961273,115.413307 
	C407.502075,116.511055 408.871521,119.048737 408.878845,120.923279 
	C409.041565,162.575943 409.420288,204.235565 408.808441,245.879913 
	C408.535370,264.464478 401.084778,281.422638 392.504608,297.675934 
	C375.715363,329.479614 352.369049,355.961761 325.486389,379.519745 
	C304.506897,397.904572 281.596466,413.575653 257.292419,427.872803 
	C256.994049,428.045929 257.008759,427.861389 257.030823,427.329834 
	C257.088501,390.130249 257.124084,353.462280 257.610046,316.714813 
	C284.994232,316.635345 311.928070,316.635345 339.164673,316.635345 
	C339.164673,273.208740 339.164673,230.343170 339.164673,186.863754 
	C331.448517,186.863754 323.827881,186.863754 316.192932,186.405945 
	C315.936829,179.473251 316.558014,172.826187 315.306305,166.552826 
	C309.366425,136.783051 287.775757,118.632744 257.041351,116.453964 
	C257.029175,102.703827 257.033539,89.416893 257.037903,76.129951 
	C257.037903,76.129951 256.965332,76.006332 256.963043,75.934692 
z"/>
<path fill="#01B3FE" opacity="1.000000" stroke="none" 
	d="
M256.570129,76.077026 
	C257.033539,89.416893 257.029175,102.703827 257.041962,116.551224 
	C257.059082,117.111687 257.034637,117.304451 256.606812,117.273209 
	C231.205261,118.626305 213.333511,130.588181 202.665329,153.228775 
	C197.614059,163.948853 197.756317,175.430557 197.404083,186.929291 
	C189.673874,186.961273 182.402786,186.961273 175.186615,186.961273 
	C175.186615,230.395966 175.186615,273.223602 175.186615,316.090302 
	C202.698135,316.090302 229.817200,316.090302 257.007324,316.261475 
	C257.078430,316.432617 257.159668,316.794281 257.159668,316.794281 
	C257.124084,353.462280 257.088501,390.130249 257.071167,427.246490 
	C244.716049,419.952881 231.969620,412.742462 220.039764,404.368744 
	C185.262451,379.958221 154.781311,351.115356 131.535202,315.227631 
	C119.054184,295.959259 109.030800,275.574738 105.560448,252.547607 
	C105.017380,248.944168 104.869362,245.252350 104.864914,241.601013 
	C104.816185,201.624542 104.869217,161.647888 104.760368,121.671661 
	C104.751701,118.489929 105.677505,116.581535 108.338409,114.751244 
	C125.894691,102.675270 143.280807,90.351891 160.837036,78.275818 
	C162.733643,76.971230 165.361481,76.107147 167.655029,76.096550 
	C197.136948,75.960304 226.619766,76.016586 256.570129,76.077026 
z"/>
<path fill="#FEB529" opacity="1.000000" stroke="none" 
	d="
M257.610046,316.714813 
	C257.159668,316.794281 257.078430,316.432617 257.025757,315.787537 
	C256.967621,299.110596 256.962158,283.078674 257.427673,267.039398 
	C261.220367,267.026642 264.546417,266.913971 267.862488,267.048126 
	C270.784332,267.166321 272.088837,266.117584 272.037201,263.037750 
	C271.909149,255.399933 271.917725,247.757309 272.035187,240.119156 
	C272.080688,237.161774 271.033142,235.858704 267.984802,235.986206 
	C264.337280,236.138763 260.678528,236.022293 257.017487,235.552322 
	C257.022247,219.108688 257.034149,203.135040 257.502930,187.089905 
	C267.288391,186.984299 276.616974,186.950226 286.417206,186.937347 
	C296.661652,186.926956 306.434479,186.895340 316.207275,186.863739 
	C323.827881,186.863754 331.448517,186.863754 339.164673,186.863754 
	C339.164673,230.343170 339.164673,273.208740 339.164673,316.635345 
	C311.928070,316.635345 284.994232,316.635345 257.610046,316.714813 
z"/>
<path fill="#FC8C03" opacity="1.000000" stroke="none" 
	d="
M316.192932,186.405930 
	C306.434479,186.895340 296.661652,186.926956 286.447205,186.479523 
	C286.007324,183.025467 286.024689,180.050385 286.008270,177.075485 
	C285.915894,160.347992 273.932312,148.152100 257.136292,147.545197 
	C257.099945,147.370850 256.940460,147.052322 256.954895,146.580597 
	C256.991058,136.507401 257.012848,126.905930 257.034637,117.304451 
	C257.034637,117.304451 257.059082,117.111687 257.058472,117.014420 
	C287.775757,118.632744 309.366425,136.783051 315.306305,166.552826 
	C316.558014,172.826187 315.936829,179.473251 316.192932,186.405930 
z"/>
<path fill="#FEE158" opacity="1.000000" stroke="none" 
	d="
M256.956726,267.046783 
	C256.962158,283.078674 256.967621,299.110596 256.954651,315.616394 
	C229.817200,316.090302 202.698135,316.090302 175.186615,316.090302 
	C175.186615,273.223602 175.186615,230.395966 175.186615,186.961273 
	C182.402786,186.961273 189.673874,186.961273 197.878891,186.960846 
	C208.541824,186.949554 218.270828,186.938690 228.470047,186.961060 
	C238.282578,186.938675 247.624878,186.883072 256.995880,186.908844 
	C257.024567,186.990219 257.046082,187.161407 257.046082,187.161407 
	C257.034149,203.135040 257.022247,219.108688 257.010254,235.546387 
	C257.010193,236.010452 257.022858,236.024918 256.553894,236.023346 
	C252.763702,236.022491 249.437775,236.132614 246.122589,235.991104 
	C243.192322,235.866028 241.908173,236.919312 241.961746,239.999557 
	C242.094589,247.636139 242.082794,255.277786 241.965347,262.914886 
	C241.920059,265.857971 242.930710,267.186157 245.995911,267.058380 
	C249.642624,266.906372 253.301071,267.036102 256.962860,267.040741 
	C256.971283,267.037720 256.956726,267.046783 256.956726,267.046783 
z"/>
<path fill="#FDB52A" opacity="1.000000" stroke="none" 
	d="
M227.999847,186.927841 
	C218.270828,186.938690 208.541824,186.949554 198.338013,186.928864 
	C197.756317,175.430557 197.614059,163.948853 202.665329,153.228775 
	C213.333511,130.588181 231.205261,118.626305 256.606812,117.273209 
	C257.012848,126.905930 256.991058,136.507401 256.568054,146.659973 
	C241.007965,149.164764 230.852219,157.578430 228.486115,170.997437 
	C227.573135,176.175171 228.118759,181.610092 227.999847,186.927841 
z"/>
<path fill="#0374F8" opacity="1.000000" stroke="none" 
	d="
M257.172668,147.719559 
	C273.932312,148.152100 285.915894,160.347992 286.008270,177.075485 
	C286.024689,180.050385 286.007324,183.025467 285.975525,186.458313 
	C276.616974,186.950226 267.288391,186.984299 257.502930,187.089905 
	C257.046082,187.161407 257.024567,186.990219 257.010437,186.451324 
	C257.055084,173.181458 257.113861,160.450516 257.172668,147.719559 
z"/>
<path fill="#FE8C01" opacity="1.000000" stroke="none" 
	d="
M257.017395,236.016388 
	C260.678528,236.022293 264.337280,236.138763 267.984802,235.986206 
	C271.033142,235.858704 272.080688,237.161774 272.035187,240.119156 
	C271.917725,247.757309 271.909149,255.399933 272.037201,263.037750 
	C272.088837,266.117584 270.784332,267.166321 267.862488,267.048126 
	C264.546417,266.913971 261.220367,267.026642 257.427673,267.039398 
	C256.956726,267.046783 256.971283,267.037720 256.976624,266.568176 
	C256.995575,256.074066 257.009216,246.049484 257.022858,236.024918 
	C257.022858,236.024918 257.010193,236.010452 257.017395,236.016388 
z"/>
<path fill="#02B3FD" opacity="1.000000" stroke="none" 
	d="
M257.136292,147.545197 
	C257.113861,160.450516 257.055084,173.181458 256.981750,186.369949 
	C247.624878,186.883072 238.282578,186.938675 228.470062,186.961060 
	C228.118759,181.610092 227.573135,176.175171 228.486115,170.997437 
	C230.852219,157.578430 241.007965,149.164764 256.553650,147.131683 
	C256.940460,147.052322 257.099945,147.370850 257.136292,147.545197 
z"/>
<path fill="#FFB528" opacity="1.000000" stroke="none" 
	d="
M256.553894,236.023346 
	C257.009216,246.049484 256.995575,256.074066 256.968201,266.571198 
	C253.301071,267.036102 249.642624,266.906372 245.995911,267.058380 
	C242.930710,267.186157 241.920059,265.857971 241.965347,262.914886 
	C242.082794,255.277786 242.094589,247.636139 241.961746,239.999557 
	C241.908173,236.919312 243.192322,235.866028 246.122589,235.991104 
	C249.437775,236.132614 252.763702,236.022491 256.553894,236.023346 
z"/>
</svg>